<!-- Generator: Adobe Illustrator 19.0.0, SVG Export Plug-In  -->
<svg version="1.1"
	 xmlns="http://www.w3.org/2000/svg" xmlns:xlink="http://www.w3.org/1999/xlink" xmlns:a="http://ns.adobe.com/AdobeSVGViewerExtensions/3.0/"
	 x="0px" y="0px" width="53.3px" height="53.3px" viewBox="0 0 53.3 53.3" style="enable-background:new 0 0 53.3 53.3;"
	 xml:space="preserve">
<style type="text/css">
	.st0{fill:#CCCCCC;}
	.st1{fill:#FFFFFF;}
</style>
<defs>
</defs>
<g id="XMLID_15_">
	<circle id="XMLID_39_" class="st0" cx="26.7" cy="26.7" r="26.7"/>
	<g id="XMLID_16_">
		<g id="XMLID_18_">
			<path id="XMLID_27_" class="st1" d="M18,30.8h-6.4v-1l1.1-1.2c2.2-2.3,3.5-3.7,3.5-5.3c0-1-0.5-1.9-1.8-1.9c-0.8,0-1.5,0.4-2,0.8
				L11.8,21c0.6-0.5,1.7-1,2.8-1c2.2,0,3.1,1.5,3.1,3.1c0,1.9-1.3,3.5-3.2,5.4l-0.9,0.9v0H18V30.8z"/>
			<path id="XMLID_24_" class="st1" d="M19.3,25.5c0-3.4,1.3-5.5,3.5-5.5c2.2,0,3.3,2.2,3.3,5.4c0,3.6-1.3,5.5-3.5,5.5
				C20.5,30.9,19.3,28.8,19.3,25.5z M24.5,25.5c0-2.5-0.5-4.1-1.8-4.1c-1.1,0-1.8,1.5-1.8,4.1c0,2.6,0.6,4.2,1.8,4.2
				C24.1,29.6,24.5,27.7,24.5,25.5z"/>
			<path id="XMLID_22_" class="st1" d="M30.2,30.8v-9.1h0l-1.8,1l-0.4-1.2l2.4-1.3h1.4v10.5H30.2z"/>
			<path id="XMLID_19_" class="st1" d="M40.8,30.8h-1.5V28h-4.4v-1.1l4.1-6.7h1.8v6.5h1.3V28h-1.3V30.8z M36.4,26.8h2.9v-3.2
				c0-0.6,0-1.2,0.1-1.8h-0.1c-0.3,0.7-0.6,1.2-0.9,1.8L36.4,26.8L36.4,26.8z"/>
		</g>
	</g>
</g>
</svg>
