<!-- Generator: Adobe Illustrator 19.0.0, SVG Export Plug-In  -->
<svg version="1.1"
	 xmlns="http://www.w3.org/2000/svg" xmlns:xlink="http://www.w3.org/1999/xlink" xmlns:a="http://ns.adobe.com/AdobeSVGViewerExtensions/3.0/"
	 x="0px" y="0px" width="53.3px" height="53.3px" viewBox="0 0 53.3 53.3" style="enable-background:new 0 0 53.3 53.3;"
	 xml:space="preserve">
<style type="text/css">
	.st0{fill:#CCCCCC;}
	.st1{fill:#FFFFFF;}
</style>
<defs>
</defs>
<g id="XMLID_15_">
	<circle id="XMLID_37_" class="st0" cx="26.7" cy="26.7" r="26.7"/>
	<g id="XMLID_16_">
		<g id="XMLID_18_">
			<path id="XMLID_26_" class="st1" d="M18,30.5h-6.4v-1l1.1-1.2c2.2-2.3,3.5-3.7,3.5-5.3c0-1-0.5-1.9-1.8-1.9c-0.8,0-1.5,0.4-2,0.8
				l-0.5-1.2c0.6-0.5,1.7-1,2.8-1c2.2,0,3.1,1.5,3.1,3.1c0,1.9-1.3,3.5-3.2,5.4l-0.9,0.9v0H18V30.5z"/>
			<path id="XMLID_23_" class="st1" d="M19.3,25.2c0-3.4,1.3-5.5,3.5-5.5c2.2,0,3.3,2.2,3.3,5.4c0,3.6-1.3,5.5-3.5,5.5
				C20.5,30.7,19.3,28.5,19.3,25.2z M24.5,25.2c0-2.5-0.5-4.1-1.8-4.1c-1.1,0-1.8,1.5-1.8,4.1c0,2.6,0.6,4.2,1.8,4.2
				C24.1,29.4,24.5,27.4,24.5,25.2z"/>
			<path id="XMLID_21_" class="st1" d="M30.2,30.5v-9.1h0l-1.8,1l-0.4-1.2l2.4-1.3h1.4v10.5H30.2z"/>
			<path id="XMLID_19_" class="st1" d="M41.2,20v1.3h-3.7l-0.4,2.5c0.2,0,0.4,0,0.7,0c1.9,0,3.6,1.1,3.6,3.3c0,2-1.6,3.6-3.9,3.6
				c-1,0-2-0.3-2.5-0.6l0.4-1.2c0.4,0.2,1.2,0.5,2,0.5c1.2,0,2.3-0.8,2.3-2.2c0-1.4-0.9-2.2-2.8-2.2c-0.5,0-0.9,0-1.3,0.1l0.7-5.1
				H41.2z"/>
		</g>
	</g>
</g>
</svg>
