<!-- Generator: Adobe Illustrator 19.0.0, SVG Export Plug-In  -->
<svg version="1.1"
	 xmlns="http://www.w3.org/2000/svg" xmlns:xlink="http://www.w3.org/1999/xlink" xmlns:a="http://ns.adobe.com/AdobeSVGViewerExtensions/3.0/"
	 x="0px" y="0px" width="53.3px" height="53.3px" viewBox="0 0 53.3 53.3" style="enable-background:new 0 0 53.3 53.3;"
	 xml:space="preserve">
<style type="text/css">
	.st0{fill:#C7B299;}
	.st1{fill:#FFFFFF;}
</style>
<defs>
</defs>
<g id="XMLID_15_">
	<circle id="XMLID_41_" class="st0" cx="26.7" cy="26.7" r="26.7"/>
	<g id="XMLID_16_">
		<g id="XMLID_18_">
			<path id="XMLID_27_" class="st1" d="M14.3,26c-0.3-0.4-0.7-0.7-1.1-0.9c2.4-1,4.7-3,5.8-5.4c0.5,0.2,1.1,0.4,1.5,0.4
				c0.4,0.1,0.4,0.2,0.1,0.3c-0.1,0-0.1,0.1-0.2,0.1c1.2,2.1,3.3,3.3,5.7,3.6c-0.4,0.4-0.6,0.9-0.8,1.4c-0.7-0.3-1.3-0.6-2-0.9v1
				c-0.7-0.1-1.7-0.1-3-0.1v2c1.6,0,2.8-0.1,3.7-0.1v1.2c-0.9-0.1-2.1-0.1-3.7-0.1v2.5c2.1,0,3.5-0.1,4.7-0.1v1.3
				c-1.3-0.1-3-0.1-5.4-0.1s-4.1,0-5.4,0.1v-1.3c1.3,0.1,2.8,0.1,5,0.1v-2.5c-1.6,0-2.8,0.1-3.8,0.1v-1.2c0.9,0.1,2.1,0.1,3.8,0.1
				v-2c-1.3,0-2.3,0.1-3.1,0.1v-0.9C15.5,25.2,14.9,25.6,14.3,26z M16.4,24.4c0.8,0.1,1.9,0.1,3.3,0.1s2.5,0,3.3-0.1
				c-1.4-0.9-2.6-2-3.3-3.4C18.9,22.1,17.7,23.3,16.4,24.4z"/>
			<path id="XMLID_19_" class="st1" d="M34.6,25.2v1.2c-0.9-0.1-2-0.1-3.7-0.1c-1.6,0-2.7,0-3.5,0.1v-1.2c0.5,0.1,1.4,0.1,2,0.1h2
				c0.3-0.6,0.6-1.2,0.9-2.3c0.3,0.2,0.9,0.4,1.2,0.5c0.1,0,0.1,0.1-0.1,0.3c-0.1,0.1-0.4,0.5-1.1,1.5C33.3,25.3,34,25.2,34.6,25.2z
				 M31.1,22.7c-1.5,0-2.5,0-3.3,0.1v-1.1c0.8,0.1,1.8,0.1,3.3,0.1c1.5,0,2.5,0,3.3-0.1v1.1C33.6,22.8,32.6,22.7,31.1,22.7z
				 M29.7,32.4h-1.2c0.1-0.6,0.1-1.1,0.1-1.7v-1.8c0-0.5,0-1.2-0.1-1.5c0.5,0.1,1,0.1,2.6,0.1c1.7,0,2.3,0,2.7-0.1
				c0,0.2-0.1,1-0.1,1.5v1.6c0,0.6,0,1.2,0.1,1.8h-1.2v-1.1h-2.9V32.4z M29.6,25.1c-0.1-0.4-0.3-1.2-0.6-1.7l1.2-0.5
				c0.1,0.4,0.5,1.3,0.6,1.6L29.6,25.1z M32.6,28.4h-2.9v1.8h2.9V28.4z M30.9,21.7c-0.1-0.3-0.2-0.7-0.6-1.4l1.4-0.5
				c0.3,0.7,0.4,1.1,0.6,1.3L30.9,21.7z M37.4,31.4c-0.1-0.5-0.2-1-0.5-1.4c1.3,0.2,1.9-0.1,1.9-1c0-1.2-0.8-2.3-1.8-3.2l1.2-4h-2
				v7.7c0,1.3,0,2.2,0.1,3.2h-1.4c0.1-1.1,0.2-1.9,0.2-3.2v-7.3c0-1,0-1.3-0.1-1.5c0.7,0,1.6,0.1,2.3,0.1c0.7,0,1.7,0,2.3-0.1
				l-1.6,4.7c1.1,1.2,1.8,2.5,1.8,3.6C40,30.6,39,31.3,37.4,31.4z"/>
		</g>
	</g>
</g>
</svg>
