<!-- Generator: Adobe Illustrator 19.0.0, SVG Export Plug-In  -->
<svg version="1.1"
	 xmlns="http://www.w3.org/2000/svg" xmlns:xlink="http://www.w3.org/1999/xlink" xmlns:a="http://ns.adobe.com/AdobeSVGViewerExtensions/3.0/"
	 x="0px" y="0px" width="53.3px" height="53.3px" viewBox="0 0 53.3 53.3" style="enable-background:new 0 0 53.3 53.3;"
	 xml:space="preserve">
<style type="text/css">
	.st0{fill:#CCCCCC;}
	.st1{fill:#FFFFFF;}
</style>
<defs>
</defs>
<g id="XMLID_15_">
	<circle id="XMLID_52_" class="st0" cx="26.7" cy="26.7" r="26.7"/>
	<g id="XMLID_16_">
		<g id="XMLID_18_">
			<path id="XMLID_27_" class="st1" d="M14,32.4c-0.1-0.5-0.2-0.9-0.5-1.5c0.7-0.1,1.8-0.3,4.1-1.1c-0.1,0.3-0.1,0.6,0,1
				C15.4,31.6,14.6,31.9,14,32.4z M14.1,26c-0.1-0.4-0.3-0.9-0.4-1.1c0.6-0.3,1.2-1.1,2.2-4.3c0.5,0.2,0.9,0.4,1.3,0.5
				c0.3,0.1,0.3,0.2,0,0.3c-0.2,0.1-0.4,0.4-2.1,3.4l1.6-0.1c0.3-0.5,0.6-1.1,0.7-1.5c0.4,0.4,0.7,0.6,1,0.7c0.2,0.1,0.2,0.2,0,0.3
				c-0.1,0-0.3,0.3-2.8,3.9l2-0.4c-0.1,0.4-0.1,0.7-0.1,1c-1.5,0.2-2.6,0.5-3.2,0.8c-0.1-0.5-0.2-0.8-0.4-1.2
				c0.5-0.2,0.9-0.5,2.3-2.7C15.4,25.6,14.5,25.8,14.1,26z M21.1,20.6c0.5-0.1,0.8-0.1,1.2-0.3c0.1,0.4,0.3,1,0.4,1.5
				c1.3,0,2.4,0,2.9-0.1c-0.1,0.6-0.1,1.1-0.1,1.6c0,0.6,0,1.1,0.1,1.6c-0.4-0.1-1.2-0.1-2.6-0.1h-3.3c0,0.4-0.1,0.8-0.2,1.2h2.9
				c1.4,0,2.3,0,3.6-0.1v5.3c0,1.4-0.1,1.6-1.7,1.8c0-0.4-0.2-0.8-0.5-1.1c1.1,0.1,1.2,0,1.2-0.6v-1.8h-1.1c0,0.9,0,1.4,0.1,2.1
				h-1.1c0.1-0.8,0.1-1.5,0.1-2.1h-1c0,0.7,0,1.6,0.1,2.4H21c0.1-0.8,0.1-1.6,0.1-2.4h-1V33H19c0.1-0.9,0.1-1.5,0.1-2.1V28
				c-0.3,1-0.6,1.8-0.9,2.6c-0.2-0.4-0.4-0.6-0.7-1c0.8-1.5,1.3-3.7,1.3-5.8c0-0.7,0-1.2-0.1-2.1c0.5,0.1,1.6,0.1,2.8,0.1
				C21.4,21.4,21.2,20.8,21.1,20.6z M24.5,22.7h-4.8V24h4.8V22.7z M21.1,28.7v-1.9h-1v1.9H21.1z M22.9,28.7v-1.9h-1v1.9H22.9z
				 M25,28.7v-1.9h-1.1v1.9H25z"/>
			<path id="XMLID_19_" class="st1" d="M30.4,24.5c0.3,0.1,0.8,0.1,1.2,0.1c0.2,0,0.2,0.1,0.1,0.2c-0.1,0.1-0.2,0.2-0.2,0.4v1.4
				c0.6,0,1-0.1,1.3-0.1c-0.1,0.2-0.1,0.7-0.1,1l-1.3,0v1.7c0.7-0.1,1.5-0.3,1.7-0.4c-0.1,0.4-0.1,0.7-0.1,1.1
				c-0.3,0-0.8,0.1-1.6,0.3c0,1.1,0,2.1,0.1,3.1h-1.3c0.1-0.9,0.1-1.9,0.1-2.9c-1.5,0.3-2,0.4-2.5,0.6c-0.1-0.4-0.2-0.9-0.3-1.3
				c0.4,0,1.7-0.1,2.8-0.3v-1.8c-1,0-1.9,0.1-2.3,0.2c-0.1-0.4-0.2-0.7-0.3-1c0.3-0.3,0.7-0.9,1.3-3.4c-0.5,0-0.8,0-1.2,0.1v-1.1
				c0.5,0.1,0.8,0.1,1.5,0.1c0.2-0.8,0.3-1.6,0.3-2c0.4,0.2,1.1,0.4,1.4,0.4c0.2,0,0.2,0.1,0,0.2c-0.1,0.1-0.3,0.4-0.6,1.4
				c0.9,0,1.7,0,2.2-0.1v1.1c-0.6-0.1-1.4-0.1-2.5-0.1L29,26.7l1.4,0C30.5,25.1,30.4,24.7,30.4,24.5z M32.5,25.8v-1
				c0.5,0.1,2,0.1,3.8,0.1c1.8,0,3.3,0,3.8-0.1v1c-0.4-0.1-0.8-0.1-1.2-0.1v4.8c0.5,0,0.9-0.1,1.3-0.2l0.1,1c-0.4,0-0.9,0-1.4,0
				c0,0.4,0,1.2,0.1,1.6h-1.1c0-0.4,0-1.1,0-1.6c-2.2,0.1-4,0.3-5.3,0.5l-0.1-1.1h1.1v-5.2C33.3,25.7,33,25.7,32.5,25.8z M36.3,24
				c-1.3,0-2.2,0-2.8,0.1c0.1-0.4,0.1-1,0.1-1.5c0-0.6,0-1.1-0.1-1.6c0.7,0,1.5,0.1,2.8,0.1c1.3,0,2.1,0,2.8-0.1c0,0.4,0,1,0,1.6
				c0,0.6,0,1.1,0,1.5C38.4,24,37.7,24,36.3,24z M38.1,21.9h-3.6v1.3h3.6V21.9z M34.6,25.7v1.2H38v-1.2H34.6z M34.6,28.8H38v-1.1
				h-3.3V28.8z M34.6,30.8l3.3-0.2v-1.1h-3.3V30.8z"/>
		</g>
	</g>
</g>
</svg>
