<!-- Generator: Adobe Illustrator 19.0.0, SVG Export Plug-In  -->
<svg version="1.1"
	 xmlns="http://www.w3.org/2000/svg" xmlns:xlink="http://www.w3.org/1999/xlink" xmlns:a="http://ns.adobe.com/AdobeSVGViewerExtensions/3.0/"
	 x="0px" y="0px" width="53.3px" height="53.3px" viewBox="0 0 53.3 53.3" style="enable-background:new 0 0 53.3 53.3;"
	 xml:space="preserve">
<style type="text/css">
	.st0{fill:#CCCCCC;}
	.st1{fill:#FFFFFF;}
</style>
<defs>
</defs>
<g id="XMLID_15_">
	<circle id="XMLID_49_" class="st0" cx="26.7" cy="26.7" r="26.7"/>
	<g id="XMLID_16_">
		<g id="XMLID_18_">
			<path id="XMLID_28_" class="st1" d="M8.6,22.1c-0.1-0.4-0.3-0.8-0.5-1.1c0.7-0.1,1.6-0.3,2.2-0.4c0.6-0.2,1.3-0.5,1.7-0.7
				c0.1,0.3,0.6,0.8,0.8,1c0.3,0.2,0.2,0.3-0.1,0.3c-0.3,0-0.8,0-1.4,0.2v2.2c0.6,0,1.2,0,1.5-0.1v1.1c-0.4-0.1-0.9-0.1-1.5-0.1v1.8
				l0.6-0.6c0.4,0.5,0.9,1.1,1.2,1.7L12.3,28c-0.3-0.6-0.6-1.3-1-1.7v3.5c0,0.7,0,1.6,0.1,2.4h-1.3c0.1-0.8,0.1-1.7,0.1-2.4v-3.5
				c-0.5,1.5-1.2,2.7-1.8,3.3c-0.2-0.4-0.4-0.8-0.7-1.1c0.9-1,2.1-2.6,2.5-4.1c-0.9,0-1.5,0-2,0.1v-1.1c0.5,0.1,1.1,0.1,2,0.1v-1.9
				C9.6,21.8,9,22,8.6,22.1z M20.5,30.7v1.2c-1.1-0.1-2-0.1-3.7-0.1c-2,0-3,0-4,0.1c0,0.1,0-1.2,0-1.2c0.9,0.1,1.7,0.1,3.2,0.1V29
				c-1,0-1.6,0-2.2,0.1V28c0.6,0.1,1.2,0.1,2.2,0.1v-1.4c-1.2,0-1.8,0-2.5,0.1v-1.1c0.9,0.1,1.6,0.1,3.4,0.1c1.4,0,2.2,0,3.1-0.1
				v1.1c-0.9-0.1-1.6-0.1-2.8-0.1v1.4c1.1,0,1.8,0,2.4-0.1v1.1C18.8,29,18.2,29,17.1,29v1.8C18.6,30.8,19.4,30.8,20.5,30.7z
				 M16.7,24.7c-1.4,0-2.3,0-2.9,0.1c0.1-0.6,0.1-1.7,0.1-2.5c0-0.7,0-1.4-0.1-1.9c0.7,0.1,1.5,0.1,2.9,0.1c1.4,0,2.2,0,2.9-0.1
				c-0.1,0.5-0.1,1.2-0.1,1.9c0,0.8,0,2,0.1,2.6C19,24.8,18.1,24.7,16.7,24.7z M18.4,21.4h-3.5v2.4h3.5V21.4z"/>
			<path id="XMLID_25_" class="st1" d="M28.1,19.7l1.3-0.3c0.2,0.5,0.3,1.1,0.5,1.7c2.8,0,3.9-0.1,4.5-0.1v1.3
				c-0.7-0.1-2-0.1-3.6-0.1h-6.1c0,6.4-0.2,7.7-1.5,10c-0.4-0.3-0.7-0.5-1.2-0.6c1.5-2.1,1.7-3.7,1.4-10.5c1.1,0.1,2.4,0.1,5.3,0.1
				C28.5,20.6,28.3,20.1,28.1,19.7z M31.5,24.2h-3c-0.9,0-2,0-2.5,0.1v-1.1c0.6,0.1,1.9,0.1,3.7,0.1c1.7,0,3.1-0.1,3.7-0.1v1.2
				c-0.5,0-1.1,0.4-3.2,1.9c0.1,0.1,0.2,0.3,0.3,0.4c1.7,0,2.8,0,3.8-0.1L33.4,29l-1.2-0.2l0.6-1.3h-2.5v3.9c0,0.7-0.6,1.1-2.5,1.1
				c0-0.4-0.2-1-0.6-1.4c1.6,0.2,1.9,0,1.9-0.4v-3.2c-1.9,0-3.1,0-3.9,0.1v-1.1c0.8,0.1,2.3,0.1,3.9,0.1c-0.3-0.4-0.9-0.9-1.4-1.2
				l0.6-0.7c0.4,0.2,0.8,0.5,1.2,1L31.5,24.2z"/>
			<path id="XMLID_19_" class="st1" d="M42.5,28.9c-0.4,1.6-2,2.7-5.5,3.5c-0.3-0.5-0.6-0.9-1-1.2c3.1-0.4,4.5-1.1,4.9-1.8
				c0.4-0.7,0.6-1.6,0.6-2.6c0.6,0.1,1.2,0.2,1.6,0.2c0.2,0,0.2,0.1,0,0.2C43.1,27.2,42.9,27.6,42.5,28.9z M45.6,29.4V26h-6.7v3.8
				h-1.4c0-0.4,0.1-0.6,0.1-1.4v-2.2c0-0.8,0-1-0.1-1.3c0.9,0.1,1.6,0.1,4.7,0.1c3.2,0,4.1,0,4.8-0.1c-0.1,0.3-0.1,0.5-0.1,1.4v1.8
				c0,0.5,0,1,0.1,1.3H45.6z M42.2,24c-2.4,0-3.4,0-4.3,0.1c0-0.5,0.1-1.1,0.1-1.9s0-1.4-0.1-1.9c0.9,0.1,2,0.1,4.3,0.1
				c2.2,0,3.4,0,4.2-0.1c0,0.5-0.1,1.1-0.1,1.9s0,1.4,0.1,1.9C45.6,24,44.5,24,42.2,24z M45.1,21.4h-5.8V23h5.8V21.4z M47.4,32.3
				c-0.8-0.6-2.5-1.4-4.3-2.1l0.7-1c1.6,0.6,3.2,1.2,4.5,1.9L47.4,32.3z"/>
		</g>
	</g>
</g>
</svg>
