<!-- Generator: Adobe Illustrator 19.0.0, SVG Export Plug-In  -->
<svg version="1.1"
	 xmlns="http://www.w3.org/2000/svg" xmlns:xlink="http://www.w3.org/1999/xlink" xmlns:a="http://ns.adobe.com/AdobeSVGViewerExtensions/3.0/"
	 x="0px" y="0px" width="53.3px" height="53.3px" viewBox="0 0 53.3 53.3" style="enable-background:new 0 0 53.3 53.3;"
	 xml:space="preserve">
<style type="text/css">
	.st0{fill:#CCCCCC;}
	.st1{fill:#FFFFFF;}
</style>
<defs>
</defs>
<g id="XMLID_15_">
	<circle id="XMLID_44_" class="st0" cx="26.7" cy="26.7" r="26.7"/>
	<g id="XMLID_16_">
		<g id="XMLID_18_">
			<path id="XMLID_25_" class="st1" d="M19,20.8V22c-0.3-0.1-0.8-0.1-1.4-0.1h-2.2c0.1,7-0.1,8.1-1.1,10.4c-0.2-0.5-0.5-0.9-0.8-1.2
				c0.8-1.7,1-3.9,0.7-10.3c0.3,0.1,1,0.1,2.4,0.1C18.2,20.9,18.7,20.9,19,20.8z M19.2,26.9c0,0.9-0.2,1-1.4,1.3
				c-0.1-0.4-0.2-0.7-0.4-1.2c0.6,0.1,0.8,0,0.8-0.4c0-0.3,0-1,0.1-2.4h-1.1v6.1c0.6-0.5,1.1-0.9,1.5-1.4c0,0.5,0.2,0.9,0.4,1.1
				c-1.6,1.3-2,1.7-2.5,2.3c-0.2-0.4-0.5-0.9-0.7-1.1c0.2-0.4,0.3-0.6,0.3-1.1v-6.9c0.3,0.1,0.7,0.1,1.5,0.1c0.8,0,1.2,0,1.5-0.1
				C19.3,24.1,19.2,26.6,19.2,26.9z M23.3,25.1C23.4,25.1,23.4,25.2,23.3,25.1c0,0.2-0.1,0.4-0.1,0.7c0,1.8-0.1,2.4-0.3,3.4
				c-0.3,1.4-1.2,2.7-3.2,3.7c-0.2-0.3-0.6-0.6-1-0.9c2.3-1.1,2.9-1.6,3.2-3.1c0.3-1.2,0.3-2.6,0.2-3.9C22.5,25.2,23,25.2,23.3,25.1
				z M19.7,21.7v-1.2c0.7,0.1,1.7,0.1,3.1,0.1c1.4,0,2.4,0,3.1-0.1v1.2c-0.7-0.1-1.6-0.1-2.8-0.1c-0.2,0.5-0.3,1.2-0.4,1.8
				c1.3,0,2.1,0,2.7-0.1c0,0.3-0.1,0.8-0.1,1.7v2.7c0,0.7,0,1.2,0.1,1.8h-1.1v-5.3h-3.1v5.5H20c0.1-0.6,0.1-1.1,0.1-1.8V25
				c0-1.1,0-1.4-0.1-1.7c0.4,0,0.9,0,1.5,0.1c0.2-0.5,0.3-1.2,0.4-1.8C20.9,21.6,20.2,21.6,19.7,21.7z M25.1,32.8
				c-0.6-0.9-1.4-1.7-2.1-2.2l0.8-0.7c0.8,0.6,1.6,1.4,2.4,2.1L25.1,32.8z"/>
			<path id="XMLID_19_" class="st1" d="M29.8,23.9v8.5h-1.3c0.1-0.7,0.1-1.2,0.1-2v-5.7c0-0.7,0-1.2-0.1-1.7
				c0.4,0.1,0.8,0.1,1.1,0.1c0.4,0,0.4,0.1,0.2,0.4C29.8,23.6,29.8,23.7,29.8,23.9z M30.8,22.7c-0.3-0.8-0.7-1.4-1.2-2l1.1-0.6
				c0.5,0.6,1,1.3,1.4,2L30.8,22.7z M33.9,29.3c-1.4,0-1.9,0-2.5,0.1c0-0.7,0.1-1.6,0.1-2.5c0-1,0-1.9-0.1-2.5
				c0.6,0.1,1.1,0.1,2.5,0.1c1.4,0,1.9,0,2.5-0.1c0,0.6,0,1.6,0,2.5c0,0.9,0,1.9,0,2.5C35.8,29.3,35.2,29.3,33.9,29.3z M35.3,25.5
				h-2.8v2.8h2.8V25.5z M39.4,22.6v8.5c0,1-0.1,1.3-2.4,1.5c-0.1-0.5-0.3-0.9-0.6-1.5c1.5,0.2,1.9,0,1.9-0.6V22h-3
				c-0.6,0-1.2,0-2.2,0.1v-1.2c1.1,0.1,2.1,0.1,3.3,0.1c1.1,0,2.2,0,3.2-0.1C39.4,21.2,39.4,21.7,39.4,22.6z"/>
		</g>
	</g>
</g>
</svg>
