<!-- Generator: Adobe Illustrator 19.0.0, SVG Export Plug-In  -->
<svg version="1.1"
	 xmlns="http://www.w3.org/2000/svg" xmlns:xlink="http://www.w3.org/1999/xlink" xmlns:a="http://ns.adobe.com/AdobeSVGViewerExtensions/3.0/"
	 x="0px" y="0px" width="53.3px" height="53.3px" viewBox="0 0 53.3 53.3" style="enable-background:new 0 0 53.3 53.3;"
	 xml:space="preserve">
<style type="text/css">
	.st0{fill:#468BCF;}
	.st1{fill:#FFFFFF;}
</style>
<defs>
</defs>
<g id="XMLID_15_">
	<circle id="XMLID_33_" class="st0" cx="26.7" cy="26.7" r="26.7"/>
	<g id="XMLID_16_">
		<g id="XMLID_18_">
			<path id="XMLID_19_" class="st1" d="M26,26.8c0.4,0.1,1,0.1,1.4,0.1c0.2,0,0.2,0.1,0,0.2c-0.1,0.1-0.2,0.3-0.3,0.9
				c1.8,0,3.7,0,5-0.1c-0.1,1-0.3,2.7-0.4,3.3c-0.3,1.1-0.5,1.3-2.7,1.5c-0.1-0.6-0.3-1-0.7-1.4c1.8,0.2,2.1,0.1,2.3-0.4
				c0.1-0.4,0.2-0.8,0.3-1.8h-4c-0.3,0.9-0.6,1.4-1.2,2c-0.7,0.7-1.8,1.3-3.4,1.8c-0.2-0.4-0.5-0.8-1-1c1.7-0.3,2.7-0.8,3.4-1.4
				c0.4-0.4,0.7-0.9,0.9-1.3c-1.5,0-3,0-3.9,0.1v-1.2c0.9,0.1,2.5,0.1,4.2,0.1C26.1,27.5,26.1,27.1,26,26.8z M31.8,22.3v3
				c0,0.5,0,1,0.1,1.5c-1.1-0.1-2.8-0.1-4.6-0.1c-1.8,0-3.7,0-4.7,0.1c0.1-0.5,0.1-1,0.1-1.5v-3c0-0.6,0-1.1-0.1-1.5
				c1,0.1,2.3,0.1,4.7,0.1c2.3,0,3.7,0,4.7-0.1C31.8,21.2,31.8,21.7,31.8,22.3z M26.7,21.8h-3v1.6h3V21.8z M26.7,24.2h-3v1.6h3V24.2
				z M30.7,21.8h-3v1.6h3V21.8z M30.7,24.2h-3v1.6h3V24.2z"/>
		</g>
	</g>
</g>
</svg>
