<!-- Generator: Adobe Illustrator 19.0.0, SVG Export Plug-In  -->
<svg version="1.1"
	 xmlns="http://www.w3.org/2000/svg" xmlns:xlink="http://www.w3.org/1999/xlink" xmlns:a="http://ns.adobe.com/AdobeSVGViewerExtensions/3.0/"
	 x="0px" y="0px" width="70.8px" height="70.8px" viewBox="0 0 70.8 70.8" style="enable-background:new 0 0 70.8 70.8;"
	 xml:space="preserve">
<style type="text/css">
	.st0{fill:#CCCCCC;}
</style>
<defs>
</defs>
<g id="XMLID_15_">
	<path id="XMLID_19_" class="st0" d="M35.4,9.4C35.4,9.4,35.3,9.4,35.4,9.4c-7.3,0-13.2,5.9-13.2,13.1c0,3.5,1.4,6.8,3.9,9.3
		s5.8,3.8,9.3,3.8c3.5,0,6.8-1.4,9.3-3.9c2.5-2.5,3.8-5.7,3.8-9.3C48.5,15.2,42.6,9.4,35.4,9.4z"/>
	<path id="XMLID_16_" class="st0" d="M35.3,0C15.7,0.1-0.1,16,0,35.5c0.1,19.6,16,35.4,35.5,35.3c19.6-0.1,35.4-16,35.3-35.5
		S54.8-0.1,35.3,0z M46.9,33.8c-2.6,2.6-6,4.2-9.6,4.5l0.1,22.7l-3,0l-0.1-22.7c-3.9-0.2-7.5-1.8-10.3-4.5c-3.1-3-4.8-7-4.8-11.3
		c0-8.9,7.2-16.1,16.1-16.1c0,0,0,0,0.1,0c8.9,0,16.2,7.1,16.2,16C51.6,26.8,49.9,30.7,46.9,33.8z"/>
</g>
</svg>
