<!-- Generator: Adobe Illustrator 19.0.0, SVG Export Plug-In  -->
<svg version="1.1"
	 xmlns="http://www.w3.org/2000/svg" xmlns:xlink="http://www.w3.org/1999/xlink" xmlns:a="http://ns.adobe.com/AdobeSVGViewerExtensions/3.0/"
	 x="0px" y="0px" width="53.3px" height="53.3px" viewBox="0 0 53.3 53.3" style="enable-background:new 0 0 53.3 53.3;"
	 xml:space="preserve">
<style type="text/css">
	.st0{fill:#CCCCCC;}
	.st1{fill:#FFFFFF;}
</style>
<defs>
</defs>
<g id="XMLID_15_">
	<circle id="XMLID_48_" class="st0" cx="26.7" cy="26.7" r="26.7"/>
	<g id="XMLID_16_">
		<g id="XMLID_18_">
			<path id="XMLID_27_" class="st1" d="M10.4,31.9c-0.5,0.5-0.7,0.8-0.8,1.1c-0.2-0.4-0.6-0.8-0.9-1c0.4-0.4,0.7-1,0.7-1.6v-4.4
				c-0.9,0-1.3,0-1.7,0.1v-1.3c0.4,0,0.9,0.1,1.5,0.1s1.1,0,1.5-0.1c-0.1,0.4-0.2,1.1-0.2,1.8v3.9c0.5-0.4,0.9-0.8,1.3-1.4
				c0.1,0.4,0.3,0.8,0.5,1.1L10.4,31.9z M10.4,23.7c-0.4-0.7-0.9-1.5-1.5-2l1-0.7c0.6,0.7,1.1,1.3,1.6,1.9L10.4,23.7z M11.9,27.5
				v-1.2c0.9,0.1,2.2,0.1,3.6,0.1c1.2,0,2.5,0,3.6-0.1c-0.9,2.1-1.5,3.3-2.4,4.4c1,0.5,2.1,0.8,3.7,1c-0.5,0.6-0.7,1.1-0.7,1.5
				c-1.6-0.5-2.8-1.1-3.8-1.7c-1,0.8-2.2,1.4-4,2c-0.2-0.4-0.5-0.7-1-1.2c1.9-0.4,3.2-0.8,4.1-1.5c-0.8-0.7-1.7-2.1-2.1-3.3
				C12.5,27.5,12.2,27.5,11.9,27.5z M19.9,25.6c-2.9,0-3.1-0.2-3.1-1.1v-2.3h-2.5c0,2-0.2,2.8-1.6,3.9c-0.3-0.4-0.5-0.6-1.1-0.8
				c1.6-0.8,1.7-1.6,1.4-4.2c0.5,0.1,1.5,0.1,2.6,0.1c1.1,0,1.9,0,2.5-0.1c-0.2,0.4-0.2,0.7-0.3,2.8c0,0.5,0.2,0.9,2.3,0.4
				C19.9,24.8,19.9,25.3,19.9,25.6z M15.8,30.1c0.8-0.7,1.3-1.6,1.6-2.6H14C14.4,28.6,15.2,29.6,15.8,30.1z"/>
			<path id="XMLID_23_" class="st1" d="M25.3,31.7c-0.4,0.4-1.1,1.2-1.3,1.6c-0.3-0.4-0.6-0.8-1-1.1c0.3-0.4,0.5-0.8,0.5-1.5v-4.6
				c-0.9,0-1.5,0-1.9,0.1v-1.4c0.5,0.1,1,0.1,1.7,0.1c0.6,0,1.2,0,1.6-0.1c-0.1,0.5-0.2,1.1-0.2,1.8v4.1c0.5-0.5,1.2-1.4,1.6-2
				c0.1,0.5,0.4,1.1,0.6,1.3L25.3,31.7z M24.3,23.7c-0.3-0.7-0.8-1.6-1.4-2.4l1.2-0.7c0.4,0.8,1,1.7,1.5,2.3L24.3,23.7z M34.4,24.7
				v1.4C33.6,26,32.6,26,31.2,26v5c0,0.7,0,1.5,0.1,2.5h-1.6c0.1-1,0.1-1.8,0.1-2.5v-5c-1.7,0-2.8,0.1-3.8,0.1v-1.4
				c1,0.1,2.1,0.1,3.8,0.1v-2.1c0-1-0.1-1.8-0.2-2.1c0.5,0.1,1,0.1,1.6,0.1c0.4,0,0.4,0.1,0.1,0.3c-0.2,0.1-0.2,0.3-0.2,1v2.8
				C32.6,24.8,33.6,24.7,34.4,24.7z"/>
			<path id="XMLID_19_" class="st1" d="M39.9,22.9c0,2.8,0,4.4-0.2,5.7c-0.2,2.2-0.6,3.3-2.7,4.8c-0.3-0.4-0.8-0.6-1.3-0.8
				c1.8-0.8,2.6-1.9,2.9-3.8c0.1-0.7,0.2-2.5,0.2-4.1c0-2.5-0.1-3.5-0.1-3.9c0.5,0.2,0.8,0.2,1.5,0.2c0.3,0,0.3,0.2,0.1,0.3
				C40.1,21.4,39.9,22,39.9,22.9z M37.5,23.4v6.8h-1.1v-5.7c0-1.3,0-1.8-0.1-2.2c0.4,0.1,0.8,0.1,1.3,0.1c0.2,0,0.2,0.1,0.1,0.2
				C37.5,22.7,37.5,23,37.5,23.4z M43.7,22.6c-1.2,0-2.1,0.1-2.8,0.1v-1.2c0.9,0.1,2,0.1,3.6,0.1c1.7,0,2.8,0,3.7-0.1v1.2
				c-0.8-0.1-1.9-0.1-3.4-0.1v2c1,0,2.1-0.1,2.9-0.1c-0.1,0.5-0.1,1-0.1,1.6v4.3c0,0.7-0.2,1-1.8,1.1c0-0.4-0.3-1-0.6-1.3
				c0.9,0.1,1.3-0.1,1.3-0.4v-4.2h-1.7v5.9c0,0.8,0,1.3,0.1,2.1h-1.4c0.1-0.7,0.1-1.3,0.1-2.1v-5.9h-1.6v5.9h-1.1
				c0.1-0.7,0.1-1.1,0.1-1.8V26c0-0.6,0-1.1-0.1-1.6c0.7,0.1,1.8,0.1,2.7,0.1V22.6z"/>
		</g>
	</g>
</g>
</svg>
