<!-- Generator: Adobe Illustrator 19.0.0, SVG Export Plug-In  -->
<svg version="1.1"
	 xmlns="http://www.w3.org/2000/svg" xmlns:xlink="http://www.w3.org/1999/xlink" xmlns:a="http://ns.adobe.com/AdobeSVGViewerExtensions/3.0/"
	 x="0px" y="0px" width="53.3px" height="53.3px" viewBox="0 0 53.3 53.3" style="enable-background:new 0 0 53.3 53.3;"
	 xml:space="preserve">
<style type="text/css">
	.st0{fill:#468BCF;}
	.st1{fill:#FFFFFF;}
</style>
<defs>
</defs>
<g id="XMLID_15_">
	<circle id="XMLID_31_" class="st0" cx="26.7" cy="26.7" r="26.7"/>
	<g id="XMLID_16_">
		<g id="XMLID_18_">
			<path id="XMLID_23_" class="st1" d="M15.1,23v-1.2c0.6,0.1,1.8,0.1,3.2,0.1c0-1.1,0-1.6-0.1-2c0.6,0.1,1.2,0.2,1.4,0.2
				c0.3,0,0.4,0.2,0.1,0.3c-0.2,0.1-0.3,0.2-0.3,0.4v1.1c1,0,1.7-0.1,2.2-0.1V23c-0.4,0-1.2-0.1-2.2-0.1v1.9h1
				c1.2-1.2,2.2-2.7,2.9-4c0.4,0.3,1,0.6,1.2,0.6c0.3,0.1,0.3,0.3,0,0.3c-0.1,0-0.5,0.4-1,1c-0.4,0.6-1,1.3-1.7,2
				c1.6,0,2.9-0.1,3.9-0.1v1.2c-1.1-0.1-2.7-0.1-4.8-0.1c-0.8,0.8-1.7,1.5-2.7,2.2v0.9c2.5-0.6,3.8-1.1,4.9-1.9
				c0.3,0.5,0.6,0.9,0.9,1.2c0.2,0.2,0.2,0.3-0.1,0.3c-0.2,0-2.2,0.5-5.7,1.4v1c0,0.4,0.2,0.6,1.8,0.6c2.9,0,3.4-0.2,3.7-1.7
				c0.4,0.3,0.9,0.6,1.4,0.7c-0.7,1.9-1.2,2.1-5,2.1c-2.8,0-3.1-0.3-3.1-1.5v-2.1c-1.1,0.7-2.1,1.2-3,1.6c-0.2-0.3-0.6-0.6-0.9-0.9
				c1.2-0.4,2.7-1.1,3.9-1.9v-0.8l0.9,0.1c0.5-0.4,1.1-0.8,1.6-1.2c-2.7,0-4.8,0-6,0.1v-1.2c1,0.1,2.6,0.1,4.8,0.1v-1.9
				C16.9,22.9,15.8,22.9,15.1,23z"/>
			<path id="XMLID_19_" class="st1" d="M31.6,22.2c0,2.8,0,4.4-0.2,5.7c-0.2,2.2-0.6,3.3-2.7,4.8c-0.3-0.4-0.8-0.6-1.3-0.8
				c1.8-0.8,2.6-1.9,2.9-3.8c0.1-0.7,0.2-2.5,0.2-4.1c0-2.5-0.1-3.5-0.1-3.9c0.5,0.2,0.8,0.2,1.5,0.2c0.3,0,0.3,0.2,0.1,0.3
				C31.8,20.8,31.6,21.4,31.6,22.2z M29.2,22.8v6.8h-1.1v-5.7c0-1.3,0-1.8-0.1-2.2c0.4,0.1,0.8,0.1,1.3,0.1c0.2,0,0.2,0.1,0.1,0.2
				C29.2,22,29.2,22.3,29.2,22.8z M35.4,21.9c-1.2,0-2.1,0.1-2.8,0.1v-1.2c0.9,0.1,2,0.1,3.6,0.1s2.8,0,3.7-0.1V22
				c-0.8-0.1-1.9-0.1-3.4-0.1v2c1,0,2.1-0.1,2.9-0.1c-0.1,0.5-0.1,1-0.1,1.6v4.3c0,0.7-0.2,1-1.8,1.1c0-0.4-0.3-1-0.6-1.3
				c0.9,0.1,1.3-0.1,1.3-0.4v-4.2h-1.7v5.9c0,0.8,0,1.3,0.1,2.1h-1.4c0.1-0.7,0.1-1.3,0.1-2.1v-5.9h-1.6v5.9h-1.1
				c0.1-0.7,0.1-1.1,0.1-1.8v-3.6c0-0.6,0-1.1-0.1-1.6c0.7,0.1,1.8,0.1,2.7,0.1V21.9z"/>
		</g>
	</g>
</g>
</svg>
