<!-- Generator: Adobe Illustrator 19.0.0, SVG Export Plug-In  -->
<svg version="1.1"
	 xmlns="http://www.w3.org/2000/svg" xmlns:xlink="http://www.w3.org/1999/xlink" xmlns:a="http://ns.adobe.com/AdobeSVGViewerExtensions/3.0/"
	 x="0px" y="0px" width="53.3px" height="53.3px" viewBox="0 0 53.3 53.3" style="enable-background:new 0 0 53.3 53.3;"
	 xml:space="preserve">
<style type="text/css">
	.st0{fill:#CCCCCC;}
	.st1{fill:#FFFFFF;}
</style>
<defs>
</defs>
<g id="XMLID_15_">
	<circle id="XMLID_25_" class="st0" cx="26.7" cy="26.7" r="26.7"/>
	<g id="XMLID_16_">
		<g id="XMLID_18_">
			<path id="XMLID_19_" class="st1" d="M32.4,31.2c-0.4,0.4-0.7,0.8-1,1.2c-0.9-0.8-2.2-1.6-3.7-2.5c-1.2,1.1-3.3,2.2-5.7,2.7
				c-0.2-0.4-0.5-0.8-0.8-1.1c2.5-0.5,4.2-1.2,5.4-2.2c-1-0.5-2.1-1.1-3.2-1.6c0.6-1.2,1-2,1.4-2.8c-1.5,0-3.2,0-4,0.1v-1.3
				c0.9,0.1,2.7,0.1,4.4,0.1c0.5-1.4,0.8-2.7,1-3.7c0.5,0.2,1.2,0.4,1.5,0.4c0.3,0,0.3,0.1,0,0.4c-0.1,0.1-0.2,0.2-1.3,2.9h3.6
				c1.1,0,2.1,0,3.1-0.1v1.3c-0.9-0.1-1.9-0.1-2.9-0.1c-0.3,1.8-0.9,3.2-1.7,4.2C30,29.8,31.2,30.5,32.4,31.2z M25,27.2
				c0.9,0.4,1.7,0.8,2.5,1.2c0.7-0.9,1.1-1.9,1.6-3.7h-3L25,27.2z"/>
		</g>
	</g>
</g>
</svg>
