<!-- Generator: Adobe Illustrator 19.0.0, SVG Export Plug-In  -->
<svg version="1.1"
	 xmlns="http://www.w3.org/2000/svg" xmlns:xlink="http://www.w3.org/1999/xlink" xmlns:a="http://ns.adobe.com/AdobeSVGViewerExtensions/3.0/"
	 x="0px" y="0px" width="53.3px" height="53.3px" viewBox="0 0 53.3 53.3" style="enable-background:new 0 0 53.3 53.3;"
	 xml:space="preserve">
<style type="text/css">
	.st0{fill:#CCCCCC;}
	.st1{fill:#FFFFFF;}
</style>
<defs>
</defs>
<g id="XMLID_15_">
	<circle id="XMLID_38_" class="st0" cx="26.7" cy="26.7" r="26.7"/>
	<g id="XMLID_16_">
		<g id="XMLID_18_">
			<path id="XMLID_23_" class="st1" d="M16.7,32.6h-1.3c0.1-0.8,0.1-1.4,0.1-2.3v-3.2c-0.4,0.5-0.8,0.9-1.2,1.3
				c-0.2-0.4-0.4-0.7-0.8-1.1c0.8-0.6,1.6-1.4,2.2-2.3c0.5-0.8,0.9-1.3,1.2-1.9c0.3,0.3,0.9,0.6,1.2,0.8c0.2,0.1,0.2,0.2,0,0.3
				c-0.1,0-0.6,0.5-1.3,1.4V32.6z M17.7,21.1c-0.2,0-0.5,0.3-1.2,1.2c-0.3,0.4-1.3,1.4-1.9,1.9c-0.2-0.3-0.5-0.6-0.9-0.8
				c0.7-0.5,1.2-1.1,1.8-1.8c0.5-0.6,0.8-1.1,1-1.5c0.3,0.3,0.9,0.7,1.2,0.8C18,21,18,21.1,17.7,21.1z M23.7,31.1
				c0,1.1-0.4,1.5-2.7,1.6c0-0.4-0.2-0.9-0.7-1.5c1.8,0.2,2.2-0.1,2.2-0.5v-4.9c-1.8,0-2.9,0-3.8,0.1v-1.3c1,0.1,2.1,0.1,3.8,0.1
				s2.7,0,3.7-0.1v1.3c-0.7-0.1-1.4-0.1-2.5-0.1V31.1z M22.4,22.2c-1.3,0-2.2,0-2.9,0.1V21c0.7,0.1,1.6,0.1,2.9,0.1
				c1.3,0,2.2,0,2.9-0.1v1.3C24.6,22.2,23.6,22.2,22.4,22.2z"/>
			<path id="XMLID_19_" class="st1" d="M28.6,26.1c0-0.3,0-1.2-0.1-1.6c0.4,0.1,0.8,0.1,1.2,0.1c0.2,0,0.3,0.1,0.1,0.3
				c-0.1,0.1-0.2,0.4-0.2,0.8v4.2l1.4-0.3v-7.4c-1.2,0-1.9,0.1-2.6,0.1v-1.3c0.7,0.1,1.6,0.1,2.9,0.1c1.3,0,2.2,0,2.9-0.1v1.2
				c-0.6-0.1-1.2-0.1-2.1-0.1v3.2c0.8,0,1.2,0,1.6-0.1v1.1c-0.4,0-0.8,0-1.6,0v3.1c0.7-0.1,1.3-0.3,1.8-0.4c-0.1,0.4-0.1,0.8,0,1.1
				c-1.2,0.2-4.8,1.1-5.8,1.5c-0.1-0.4-0.3-1.1-0.5-1.4c0.3,0,0.7,0,1.1-0.1V26.1z M33.1,32.8c-0.1-0.3-0.6-0.8-1-1.1
				c1.8-0.4,2.8-1.1,3.7-2.1c-0.6-1.1-0.9-2.5-1.1-4.2c-0.1,0.1-0.2,0.3-0.3,0.4c-0.3-0.2-0.6-0.5-0.9-0.6c1.2-1.5,1.9-3.4,2.1-5.2
				c0.4,0.1,1.1,0.3,1.5,0.4c0.2,0,0.2,0.1,0,0.3c-0.1,0.1-0.2,0.3-0.9,1.8h1.7c0.9,0,1.9-0.1,2.3-0.1v1.2c-0.5,0-0.7,0-1.4,0
				c-0.2,2.9-0.6,4.6-1.5,6.2c0.7,0.8,1.6,1.2,3,1.5c-0.4,0.4-0.8,0.9-0.9,1.4c-1.3-0.7-2.1-1.2-2.8-2
				C35.8,31.3,34.6,32.1,33.1,32.8z M37.6,23.3h-1.8c-0.3,0.7-0.6,1.4-0.9,1.9l0.9-0.2c0,1.1,0.4,2.7,0.9,3.6
				C37.1,27.5,37.5,25.7,37.6,23.3z"/>
		</g>
	</g>
</g>
</svg>
