<!-- Generator: Adobe Illustrator 19.0.0, SVG Export Plug-In  -->
<svg version="1.1"
	 xmlns="http://www.w3.org/2000/svg" xmlns:xlink="http://www.w3.org/1999/xlink" xmlns:a="http://ns.adobe.com/AdobeSVGViewerExtensions/3.0/"
	 x="0px" y="0px" width="53.3px" height="53.3px" viewBox="0 0 53.3 53.3" style="enable-background:new 0 0 53.3 53.3;"
	 xml:space="preserve">
<style type="text/css">
	.st0{fill:#468BCF;}
	.st1{fill:#FFFFFF;}
</style>
<defs>
</defs>
<g id="XMLID_15_">
	<circle id="XMLID_44_" class="st0" cx="26.7" cy="26.7" r="26.7"/>
	<g id="XMLID_16_">
		<g id="XMLID_18_">
			<path id="XMLID_26_" class="st1" d="M15.5,25.7h-0.7c-0.4,0-0.6,0-0.9,0.1v-1.2c0.4,0.1,0.9,0.1,1.4,0.1c0.5,0,1,0,1.4-0.1
				c-0.1,0.5-0.1,0.9-0.1,1.7v3.8c0.2,0.1,0.4,0.1,0.6,0.3c1.1,0.7,3.3,1.1,8.9,0.5c-0.2,0.5-0.3,0.9-0.3,1.3c-6.4,0.2-7.1,0-9-1
				c-0.9-0.5-1.3-0.3-2.1,1.3c-0.3-0.4-0.7-0.7-1.1-0.9c0.8-0.8,1.4-1.3,1.9-1.5V25.7z M15.4,23c-0.2-1-0.4-1.8-0.8-2.4l1.1-0.3
				c0.3,0.7,0.7,1.5,1,2.4L15.4,23z M17.4,24.9v-1.2c1,0.1,2.3,0.1,4.2,0.1c1.9,0,3.3,0,4.4-0.1v1.1c-1-0.1-2.4-0.1-4.2-0.1
				c-0.6,1.3-1.1,2.4-1.9,3.7l3.7-0.3c-0.4-0.7-0.8-1.4-1.2-1.9l0.9-0.5c0.7,0.9,1.6,2.2,2.3,3.4l-1.2,0.6c-0.1-0.3-0.2-0.5-0.4-0.8
				c-4,0.3-4.9,0.5-5.5,0.8c-0.1-0.4-0.2-0.8-0.4-1.1c0.3-0.1,0.7-0.4,0.9-0.7c0.5-0.7,1-1.8,1.4-3.2C19.1,24.8,18.2,24.8,17.4,24.9
				z M21.8,21.8c-1.5,0-2.4,0-3.2,0.1v-1.2c0.8,0.1,1.7,0.1,3.2,0.1s2.4,0,3.2-0.1v1.2C24.2,21.8,23.3,21.8,21.8,21.8z"/>
			<path id="XMLID_19_" class="st1" d="M39.7,23.2v2.3h-1.1v-1.3h-9.3v1.4h-1.1v-2.4c0.7,0,1.7,0.1,3.4,0.1v-1.1
				c-1.4,0-2.7,0.1-3.6,0.1v-1.1c0.9,0.1,2.1,0.1,3.6,0.1c0-0.6,0-0.9-0.1-1.2c0.4,0.1,0.9,0.1,1.3,0.1c0.2,0,0.3,0.1,0.1,0.2
				c-0.1,0.1-0.2,0.1-0.2,0.3v0.6h2.6c0-0.6,0-0.9-0.1-1.2c0.4,0.1,0.9,0.1,1.3,0.1c0.2,0,0.3,0.1,0.1,0.2c-0.1,0.1-0.2,0.1-0.2,0.3
				v0.6c1.5,0,2.8,0,3.7-0.1v1.1c-0.9-0.1-2.2-0.1-3.7-0.1v1.1C38,23.3,39,23.2,39.7,23.2z M30.6,31.6v1h-1.2
				c0.1-0.4,0.1-0.7,0.1-1.1v-2.1c0-0.3,0-0.5-0.1-0.7c0.8,0,1.5,0,4.5,0c3,0,3.8,0,4.5,0c0,0.2-0.1,0.4-0.1,0.7v1.9
				c0,0.4,0,0.7,0.1,1.1h-1.3v-0.9H30.6z M33.8,27.9c-1.6,0-2.7,0-3.5,0.1c0.1-0.4,0.1-0.9,0.1-1.4c0-0.5,0-1.1-0.1-1.4
				c0.9,0,1.9,0.1,3.5,0.1c1.6,0,2.6,0,3.5-0.1c0,0.4,0,0.9,0,1.4c0,0.5,0,1.1,0,1.4C36.5,27.9,35.4,27.9,33.8,27.9z M37.2,30.8
				v-1.1h-6.5v1.1H37.2z M36.2,26h-4.7v1.1h4.7V26z M35.2,23.3v-1.1h-2.6v1.1H35.2z"/>
		</g>
	</g>
</g>
</svg>
